<svg width="96" height="96" viewBox="0 0 96 96" fill="none" xmlns="http://www.w3.org/2000/svg">
<path d="M30.456 72.872C25.176 72.872 21.24 71.096 18.648 67.544C16.152 63.992 14.904 59.864 14.904 55.16C14.904 50.84 15.816 46.712 17.64 42.776C19.56 38.744 22.008 35.24 24.984 32.264C28.056 29.192 31.368 26.888 34.92 25.352L44.856 32.696C40.92 34.328 37.368 36.536 34.2 39.32C31.128 42.008 28.968 44.888 27.72 47.96L28.44 48.392C29.016 48.008 29.64 47.72 30.312 47.528C31.08 47.336 32.088 47.24 33.336 47.24C35.928 47.24 38.472 48.2 40.968 50.12C43.56 52.04 44.856 55.016 44.856 59.048C44.856 63.56 43.368 67.016 40.392 69.416C37.512 71.72 34.2 72.872 30.456 72.872ZM65.736 72.872C60.456 72.872 56.52 71.096 53.928 67.544C51.432 63.992 50.184 59.864 50.184 55.16C50.184 50.84 51.096 46.712 52.92 42.776C54.84 38.744 57.288 35.24 60.264 32.264C63.336 29.192 66.648 26.888 70.2 25.352L80.136 32.696C76.2 34.328 72.648 36.536 69.48 39.32C66.408 42.008 64.248 44.888 63 47.96L63.72 48.392C64.296 48.008 64.92 47.72 65.592 47.528C66.36 47.336 67.368 47.24 68.616 47.24C71.208 47.24 73.752 48.2 76.248 50.12C78.84 52.04 80.136 55.016 80.136 59.048C80.136 63.56 78.648 67.016 75.672 69.416C72.792 71.72 69.48 72.872 65.736 72.872Z" fill="#FF4C34"/>
</svg>
