<svg width="1040" height="699" viewBox="0 0 1040 699" fill="none" xmlns="http://www.w3.org/2000/svg">
<rect x="60" y="60" width="100" height="400" fill="#FF602E"/>
<path d="M108.562 250.945C108.562 252.602 108.148 254.07 107.32 255.352C106.492 256.633 105.352 257.656 103.898 258.422C105.555 259.219 106.867 260.32 107.836 261.727C108.805 263.117 109.289 264.758 109.289 266.648C109.289 269.68 108.258 272.078 106.195 273.844C104.133 275.594 101.328 276.469 97.7812 276.469C94.2344 276.469 91.4219 275.586 89.3438 273.82C87.2656 272.055 86.2266 269.664 86.2266 266.648C86.2266 264.758 86.7109 263.109 87.6797 261.703C88.6484 260.297 89.9531 259.203 91.5938 258.422C90.1406 257.656 89 256.633 88.1719 255.352C87.3594 254.07 86.9531 252.602 86.9531 250.945C86.9531 248.039 87.9219 245.727 89.8594 244.008C91.7969 242.273 94.4297 241.406 97.7578 241.406C101.07 241.406 103.695 242.266 105.633 243.984C107.586 245.688 108.562 248.008 108.562 250.945ZM102.492 266.156C102.492 264.672 102.062 263.484 101.203 262.594C100.344 261.703 99.1875 261.258 97.7344 261.258C96.2969 261.258 95.1484 261.703 94.2891 262.594C93.4297 263.469 93 264.656 93 266.156C93 267.609 93.4219 268.781 94.2656 269.672C95.1094 270.562 96.2812 271.008 97.7812 271.008C99.25 271.008 100.398 270.578 101.227 269.719C102.07 268.859 102.492 267.672 102.492 266.156ZM101.789 251.273C101.789 249.945 101.438 248.883 100.734 248.086C100.031 247.273 99.0391 246.867 97.7578 246.867C96.4922 246.867 95.5078 247.258 94.8047 248.039C94.1016 248.82 93.75 249.898 93.75 251.273C93.75 252.633 94.1016 253.727 94.8047 254.555C95.5078 255.383 96.5 255.797 97.7812 255.797C99.0625 255.797 100.047 255.383 100.734 254.555C101.438 253.727 101.789 252.633 101.789 251.273ZM123.82 258.211L128.086 250.641H135.328L128.109 263.062L135.633 276H128.367L123.844 268.031L119.344 276H112.055L119.578 263.062L112.383 250.641H119.648L123.82 258.211Z" fill="white"/>
<rect x="184" y="420" width="100" height="40" fill="#677CFF"/>
<path d="M74.4609 530.641V544H69.9609V509.875H82.5469C86.2812 509.875 89.2031 510.828 91.3125 512.734C93.4375 514.641 94.5 517.164 94.5 520.305C94.5 523.617 93.4609 526.172 91.3828 527.969C89.3203 529.75 86.3594 530.641 82.5 530.641H74.4609ZM74.4609 526.961H82.5469C84.9531 526.961 86.7969 526.398 88.0781 525.273C89.3594 524.133 90 522.492 90 520.352C90 518.32 89.3594 516.695 88.0781 515.477C86.7969 514.258 85.0391 513.625 82.8047 513.578H74.4609V526.961ZM109.758 544.469C106.32 544.469 103.523 543.344 101.367 541.094C99.2109 538.828 98.1328 535.805 98.1328 532.023V531.227C98.1328 528.711 98.6094 526.469 99.5625 524.5C100.531 522.516 101.875 520.969 103.594 519.859C105.328 518.734 107.203 518.172 109.219 518.172C112.516 518.172 115.078 519.258 116.906 521.43C118.734 523.602 119.648 526.711 119.648 530.758V532.562H102.469C102.531 535.062 103.258 537.086 104.648 538.633C106.055 540.164 107.836 540.93 109.992 540.93C111.523 540.93 112.82 540.617 113.883 539.992C114.945 539.367 115.875 538.539 116.672 537.508L119.32 539.57C117.195 542.836 114.008 544.469 109.758 544.469ZM109.219 521.734C107.469 521.734 106 522.375 104.812 523.656C103.625 524.922 102.891 526.703 102.609 529H115.312V528.672C115.188 526.469 114.594 524.766 113.531 523.562C112.469 522.344 111.031 521.734 109.219 521.734ZM129.164 518.641V546.93C129.164 551.805 126.953 554.242 122.531 554.242C121.578 554.242 120.695 554.102 119.883 553.82V550.352C120.383 550.477 121.039 550.539 121.852 550.539C122.82 550.539 123.555 550.273 124.055 549.742C124.57 549.227 124.828 548.32 124.828 547.023V518.641H129.164ZM124.383 511.914C124.383 511.227 124.594 510.641 125.016 510.156C125.453 509.656 126.086 509.406 126.914 509.406C127.758 509.406 128.398 509.648 128.836 510.133C129.273 510.617 129.492 511.211 129.492 511.914C129.492 512.617 129.273 513.203 128.836 513.672C128.398 514.141 127.758 514.375 126.914 514.375C126.07 514.375 125.438 514.141 125.016 513.672C124.594 513.203 124.383 512.617 124.383 511.914ZM135.023 531.086C135.023 528.602 135.508 526.367 136.477 524.383C137.461 522.398 138.82 520.867 140.555 519.789C142.305 518.711 144.297 518.172 146.531 518.172C149.984 518.172 152.773 519.367 154.898 521.758C157.039 524.148 158.109 527.328 158.109 531.297V531.602C158.109 534.07 157.633 536.289 156.68 538.258C155.742 540.211 154.391 541.734 152.625 542.828C150.875 543.922 148.859 544.469 146.578 544.469C143.141 544.469 140.352 543.273 138.211 540.883C136.086 538.492 135.023 535.328 135.023 531.391V531.086ZM139.383 531.602C139.383 534.414 140.031 536.672 141.328 538.375C142.641 540.078 144.391 540.93 146.578 540.93C148.781 540.93 150.531 540.07 151.828 538.352C153.125 536.617 153.773 534.195 153.773 531.086C153.773 528.305 153.109 526.055 151.781 524.336C150.469 522.602 148.719 521.734 146.531 521.734C144.391 521.734 142.664 522.586 141.352 524.289C140.039 525.992 139.383 528.43 139.383 531.602ZM175.805 522.531C175.148 522.422 174.438 522.367 173.672 522.367C170.828 522.367 168.898 523.578 167.883 526V544H163.547V518.641H167.766L167.836 521.57C169.258 519.305 171.273 518.172 173.883 518.172C174.727 518.172 175.367 518.281 175.805 518.5V522.531ZM194.531 544C194.281 543.5 194.078 542.609 193.922 541.328C191.906 543.422 189.5 544.469 186.703 544.469C184.203 544.469 182.148 543.766 180.539 542.359C178.945 540.938 178.148 539.141 178.148 536.969C178.148 534.328 179.148 532.281 181.148 530.828C183.164 529.359 185.992 528.625 189.633 528.625H193.852V526.633C193.852 525.117 193.398 523.914 192.492 523.023C191.586 522.117 190.25 521.664 188.484 521.664C186.938 521.664 185.641 522.055 184.594 522.836C183.547 523.617 183.023 524.562 183.023 525.672H178.664C178.664 524.406 179.109 523.188 180 522.016C180.906 520.828 182.125 519.891 183.656 519.203C185.203 518.516 186.898 518.172 188.742 518.172C191.664 518.172 193.953 518.906 195.609 520.375C197.266 521.828 198.125 523.836 198.188 526.398V538.07C198.188 540.398 198.484 542.25 199.078 543.625V544H194.531ZM187.336 540.695C188.695 540.695 189.984 540.344 191.203 539.641C192.422 538.938 193.305 538.023 193.852 536.898V531.695H190.453C185.141 531.695 182.484 533.25 182.484 536.359C182.484 537.719 182.938 538.781 183.844 539.547C184.75 540.312 185.914 540.695 187.336 540.695ZM210.867 512.5V518.641H215.602V521.992H210.867V537.719C210.867 538.734 211.078 539.5 211.5 540.016C211.922 540.516 212.641 540.766 213.656 540.766C214.156 540.766 214.844 540.672 215.719 540.484V544C214.578 544.312 213.469 544.469 212.391 544.469C210.453 544.469 208.992 543.883 208.008 542.711C207.023 541.539 206.531 539.875 206.531 537.719V521.992H201.914V518.641H206.531V512.5H210.867ZM225.398 544H221.062V518.641H225.398V544ZM220.711 511.914C220.711 511.211 220.922 510.617 221.344 510.133C221.781 509.648 222.422 509.406 223.266 509.406C224.109 509.406 224.75 509.648 225.188 510.133C225.625 510.617 225.844 511.211 225.844 511.914C225.844 512.617 225.625 513.203 225.188 513.672C224.75 514.141 224.109 514.375 223.266 514.375C222.422 514.375 221.781 514.141 221.344 513.672C220.922 513.203 220.711 512.617 220.711 511.914ZM240.727 538.117L247.008 518.641H251.438L242.344 544H239.039L229.852 518.641H234.281L240.727 538.117ZM265.805 544.469C262.367 544.469 259.57 543.344 257.414 541.094C255.258 538.828 254.18 535.805 254.18 532.023V531.227C254.18 528.711 254.656 526.469 255.609 524.5C256.578 522.516 257.922 520.969 259.641 519.859C261.375 518.734 263.25 518.172 265.266 518.172C268.562 518.172 271.125 519.258 272.953 521.43C274.781 523.602 275.695 526.711 275.695 530.758V532.562H258.516C258.578 535.062 259.305 537.086 260.695 538.633C262.102 540.164 263.883 540.93 266.039 540.93C267.57 540.93 268.867 540.617 269.93 539.992C270.992 539.367 271.922 538.539 272.719 537.508L275.367 539.57C273.242 542.836 270.055 544.469 265.805 544.469ZM265.266 521.734C263.516 521.734 262.047 522.375 260.859 523.656C259.672 524.922 258.938 526.703 258.656 529H271.359V528.672C271.234 526.469 270.641 524.766 269.578 523.562C268.516 522.344 267.078 521.734 265.266 521.734Z" fill="#ADBDD3"/>
<rect x="408" y="380" width="100" height="80" fill="#FF602E"/>
<rect x="532" y="60" width="100" height="400" fill="#677CFF"/>
<path d="M565.211 255.938H568.82C570.539 255.938 571.812 255.508 572.641 254.648C573.469 253.789 573.883 252.648 573.883 251.227C573.883 249.852 573.469 248.781 572.641 248.016C571.828 247.25 570.703 246.867 569.266 246.867C567.969 246.867 566.883 247.227 566.008 247.945C565.133 248.648 564.695 249.57 564.695 250.711H557.922C557.922 248.93 558.398 247.336 559.352 245.93C560.32 244.508 561.664 243.398 563.383 242.602C565.117 241.805 567.023 241.406 569.102 241.406C572.711 241.406 575.539 242.273 577.586 244.008C579.633 245.727 580.656 248.102 580.656 251.133C580.656 252.695 580.18 254.133 579.227 255.445C578.273 256.758 577.023 257.766 575.477 258.469C577.398 259.156 578.828 260.188 579.766 261.562C580.719 262.938 581.195 264.562 581.195 266.438C581.195 269.469 580.086 271.898 577.867 273.727C575.664 275.555 572.742 276.469 569.102 276.469C565.695 276.469 562.906 275.57 560.734 273.773C558.578 271.977 557.5 269.602 557.5 266.648H564.273C564.273 267.93 564.75 268.977 565.703 269.789C566.672 270.602 567.859 271.008 569.266 271.008C570.875 271.008 572.133 270.586 573.039 269.742C573.961 268.883 574.422 267.75 574.422 266.344C574.422 262.938 572.547 261.234 568.797 261.234H565.211V255.938ZM595.82 258.211L600.086 250.641H607.328L600.109 263.062L607.633 276H600.367L595.844 268.031L591.344 276H584.055L591.578 263.062L584.383 250.641H591.648L595.82 258.211Z" fill="white"/>
<path d="M378.016 528.789C374.156 527.68 371.344 526.32 369.578 524.711C367.828 523.086 366.953 521.086 366.953 518.711C366.953 516.023 368.023 513.805 370.164 512.055C372.32 510.289 375.117 509.406 378.555 509.406C380.898 509.406 382.984 509.859 384.812 510.766C386.656 511.672 388.078 512.922 389.078 514.516C390.094 516.109 390.602 517.852 390.602 519.742H386.078C386.078 517.68 385.422 516.062 384.109 514.891C382.797 513.703 380.945 513.109 378.555 513.109C376.336 513.109 374.602 513.602 373.352 514.586C372.117 515.555 371.5 516.906 371.5 518.641C371.5 520.031 372.086 521.211 373.258 522.18C374.445 523.133 376.453 524.008 379.281 524.805C382.125 525.602 384.344 526.484 385.938 527.453C387.547 528.406 388.734 529.523 389.5 530.805C390.281 532.086 390.672 533.594 390.672 535.328C390.672 538.094 389.594 540.312 387.438 541.984C385.281 543.641 382.398 544.469 378.789 544.469C376.445 544.469 374.258 544.023 372.227 543.133C370.195 542.227 368.625 540.992 367.516 539.43C366.422 537.867 365.875 536.094 365.875 534.109H370.398C370.398 536.172 371.156 537.805 372.672 539.008C374.203 540.195 376.242 540.789 378.789 540.789C381.164 540.789 382.984 540.305 384.25 539.336C385.516 538.367 386.148 537.047 386.148 535.375C386.148 533.703 385.562 532.414 384.391 531.508C383.219 530.586 381.094 529.68 378.016 528.789ZM406.305 544.469C402.867 544.469 400.07 543.344 397.914 541.094C395.758 538.828 394.68 535.805 394.68 532.023V531.227C394.68 528.711 395.156 526.469 396.109 524.5C397.078 522.516 398.422 520.969 400.141 519.859C401.875 518.734 403.75 518.172 405.766 518.172C409.062 518.172 411.625 519.258 413.453 521.43C415.281 523.602 416.195 526.711 416.195 530.758V532.562H399.016C399.078 535.062 399.805 537.086 401.195 538.633C402.602 540.164 404.383 540.93 406.539 540.93C408.07 540.93 409.367 540.617 410.43 539.992C411.492 539.367 412.422 538.539 413.219 537.508L415.867 539.57C413.742 542.836 410.555 544.469 406.305 544.469ZM405.766 521.734C404.016 521.734 402.547 522.375 401.359 523.656C400.172 524.922 399.438 526.703 399.156 529H411.859V528.672C411.734 526.469 411.141 524.766 410.078 523.562C409.016 522.344 407.578 521.734 405.766 521.734ZM425.945 544H421.609V508H425.945V544ZM435.039 544V521.992H431.031V518.641H435.039V516.039C435.039 513.32 435.766 511.219 437.219 509.734C438.672 508.25 440.727 507.508 443.383 507.508C444.383 507.508 445.375 507.641 446.359 507.906L446.125 511.422C445.391 511.281 444.609 511.211 443.781 511.211C442.375 511.211 441.289 511.625 440.523 512.453C439.758 513.266 439.375 514.438 439.375 515.969V518.641H444.789V521.992H439.375V544H435.039ZM458.617 531.273H447.18V527.734H458.617V531.273ZM475.117 522.531C474.461 522.422 473.75 522.367 472.984 522.367C470.141 522.367 468.211 523.578 467.195 526V544H462.859V518.641H467.078L467.148 521.57C468.57 519.305 470.586 518.172 473.195 518.172C474.039 518.172 474.68 518.281 475.117 518.5V522.531ZM489.18 544.469C485.742 544.469 482.945 543.344 480.789 541.094C478.633 538.828 477.555 535.805 477.555 532.023V531.227C477.555 528.711 478.031 526.469 478.984 524.5C479.953 522.516 481.297 520.969 483.016 519.859C484.75 518.734 486.625 518.172 488.641 518.172C491.938 518.172 494.5 519.258 496.328 521.43C498.156 523.602 499.07 526.711 499.07 530.758V532.562H481.891C481.953 535.062 482.68 537.086 484.07 538.633C485.477 540.164 487.258 540.93 489.414 540.93C490.945 540.93 492.242 540.617 493.305 539.992C494.367 539.367 495.297 538.539 496.094 537.508L498.742 539.57C496.617 542.836 493.43 544.469 489.18 544.469ZM488.641 521.734C486.891 521.734 485.422 522.375 484.234 523.656C483.047 524.922 482.312 526.703 482.031 529H494.734V528.672C494.609 526.469 494.016 524.766 492.953 523.562C491.891 522.344 490.453 521.734 488.641 521.734ZM506.242 544V521.992H502.234V518.641H506.242V516.039C506.242 513.32 506.969 511.219 508.422 509.734C509.875 508.25 511.93 507.508 514.586 507.508C515.586 507.508 516.578 507.641 517.562 507.906L517.328 511.422C516.594 511.281 515.812 511.211 514.984 511.211C513.578 511.211 512.492 511.625 511.727 512.453C510.961 513.266 510.578 514.438 510.578 515.969V518.641H515.992V521.992H510.578V544H506.242ZM530.758 544.469C527.32 544.469 524.523 543.344 522.367 541.094C520.211 538.828 519.133 535.805 519.133 532.023V531.227C519.133 528.711 519.609 526.469 520.562 524.5C521.531 522.516 522.875 520.969 524.594 519.859C526.328 518.734 528.203 518.172 530.219 518.172C533.516 518.172 536.078 519.258 537.906 521.43C539.734 523.602 540.648 526.711 540.648 530.758V532.562H523.469C523.531 535.062 524.258 537.086 525.648 538.633C527.055 540.164 528.836 540.93 530.992 540.93C532.523 540.93 533.82 540.617 534.883 539.992C535.945 539.367 536.875 538.539 537.672 537.508L540.32 539.57C538.195 542.836 535.008 544.469 530.758 544.469ZM530.219 521.734C528.469 521.734 527 522.375 525.812 523.656C524.625 524.922 523.891 526.703 523.609 529H536.312V528.672C536.188 526.469 535.594 524.766 534.531 523.562C533.469 522.344 532.031 521.734 530.219 521.734ZM557.945 522.531C557.289 522.422 556.578 522.367 555.812 522.367C552.969 522.367 551.039 523.578 550.023 526V544H545.688V518.641H549.906L549.977 521.57C551.398 519.305 553.414 518.172 556.023 518.172C556.867 518.172 557.508 518.281 557.945 518.5V522.531ZM572.008 544.469C568.57 544.469 565.773 543.344 563.617 541.094C561.461 538.828 560.383 535.805 560.383 532.023V531.227C560.383 528.711 560.859 526.469 561.812 524.5C562.781 522.516 564.125 520.969 565.844 519.859C567.578 518.734 569.453 518.172 571.469 518.172C574.766 518.172 577.328 519.258 579.156 521.43C580.984 523.602 581.898 526.711 581.898 530.758V532.562H564.719C564.781 535.062 565.508 537.086 566.898 538.633C568.305 540.164 570.086 540.93 572.242 540.93C573.773 540.93 575.07 540.617 576.133 539.992C577.195 539.367 578.125 538.539 578.922 537.508L581.57 539.57C579.445 542.836 576.258 544.469 572.008 544.469ZM571.469 521.734C569.719 521.734 568.25 522.375 567.062 523.656C565.875 524.922 565.141 526.703 564.859 529H577.562V528.672C577.438 526.469 576.844 524.766 575.781 523.562C574.719 522.344 573.281 521.734 571.469 521.734ZM591.039 518.641L591.18 521.828C593.117 519.391 595.648 518.172 598.773 518.172C604.133 518.172 606.836 521.195 606.883 527.242V544H602.547V527.219C602.531 525.391 602.109 524.039 601.281 523.164C600.469 522.289 599.195 521.852 597.461 521.852C596.055 521.852 594.82 522.227 593.758 522.977C592.695 523.727 591.867 524.711 591.273 525.93V544H586.938V518.641H591.039ZM619.305 512.5V518.641H624.039V521.992H619.305V537.719C619.305 538.734 619.516 539.5 619.938 540.016C620.359 540.516 621.078 540.766 622.094 540.766C622.594 540.766 623.281 540.672 624.156 540.484V544C623.016 544.312 621.906 544.469 620.828 544.469C618.891 544.469 617.43 543.883 616.445 542.711C615.461 541.539 614.969 539.875 614.969 537.719V521.992H610.352V518.641H614.969V512.5H619.305ZM633.836 544H629.5V518.641H633.836V544ZM629.148 511.914C629.148 511.211 629.359 510.617 629.781 510.133C630.219 509.648 630.859 509.406 631.703 509.406C632.547 509.406 633.188 509.648 633.625 510.133C634.062 510.617 634.281 511.211 634.281 511.914C634.281 512.617 634.062 513.203 633.625 513.672C633.188 514.141 632.547 514.375 631.703 514.375C630.859 514.375 630.219 514.141 629.781 513.672C629.359 513.203 629.148 512.617 629.148 511.914ZM656.453 544C656.203 543.5 656 542.609 655.844 541.328C653.828 543.422 651.422 544.469 648.625 544.469C646.125 544.469 644.07 543.766 642.461 542.359C640.867 540.938 640.07 539.141 640.07 536.969C640.07 534.328 641.07 532.281 643.07 530.828C645.086 529.359 647.914 528.625 651.555 528.625H655.773V526.633C655.773 525.117 655.32 523.914 654.414 523.023C653.508 522.117 652.172 521.664 650.406 521.664C648.859 521.664 647.562 522.055 646.516 522.836C645.469 523.617 644.945 524.562 644.945 525.672H640.586C640.586 524.406 641.031 523.188 641.922 522.016C642.828 520.828 644.047 519.891 645.578 519.203C647.125 518.516 648.82 518.172 650.664 518.172C653.586 518.172 655.875 518.906 657.531 520.375C659.188 521.828 660.047 523.836 660.109 526.398V538.07C660.109 540.398 660.406 542.25 661 543.625V544H656.453ZM649.258 540.695C650.617 540.695 651.906 540.344 653.125 539.641C654.344 538.938 655.227 538.023 655.773 536.898V531.695H652.375C647.062 531.695 644.406 533.25 644.406 536.359C644.406 537.719 644.859 538.781 645.766 539.547C646.672 540.312 647.836 540.695 649.258 540.695ZM671.617 544H667.281V508H671.617V544Z" fill="#ADBDD3"/>
<rect x="756" y="300" width="100" height="160" fill="#FF602E"/>
<rect x="880" y="60" width="100" height="400" fill="#677CFF"/>
<path d="M929.711 276H906.32V271.359L917.359 259.594C918.875 257.938 919.992 256.492 920.711 255.258C921.445 254.023 921.812 252.852 921.812 251.742C921.812 250.227 921.43 249.039 920.664 248.18C919.898 247.305 918.805 246.867 917.383 246.867C915.852 246.867 914.641 247.398 913.75 248.461C912.875 249.508 912.438 250.891 912.438 252.609H905.641C905.641 250.531 906.133 248.633 907.117 246.914C908.117 245.195 909.523 243.852 911.336 242.883C913.148 241.898 915.203 241.406 917.5 241.406C921.016 241.406 923.742 242.25 925.68 243.938C927.633 245.625 928.609 248.008 928.609 251.086C928.609 252.773 928.172 254.492 927.297 256.242C926.422 257.992 924.922 260.031 922.797 262.359L915.039 270.539H929.711V276ZM943.82 258.211L948.086 250.641H955.328L948.109 263.062L955.633 276H948.367L943.844 268.031L939.344 276H932.055L939.578 263.062L932.383 250.641H939.648L943.82 258.211Z" fill="white"/>
<path d="M783.805 535.094H769.508L766.297 544H761.656L774.688 509.875H778.625L791.68 544H787.062L783.805 535.094ZM770.867 531.391H782.469L776.656 515.43L770.867 531.391ZM805.766 540.93C807.312 540.93 808.664 540.461 809.82 539.523C810.977 538.586 811.617 537.414 811.742 536.008H815.844C815.766 537.461 815.266 538.844 814.344 540.156C813.422 541.469 812.188 542.516 810.641 543.297C809.109 544.078 807.484 544.469 805.766 544.469C802.312 544.469 799.562 543.32 797.516 541.023C795.484 538.711 794.469 535.555 794.469 531.555V530.828C794.469 528.359 794.922 526.164 795.828 524.242C796.734 522.32 798.031 520.828 799.719 519.766C801.422 518.703 803.43 518.172 805.742 518.172C808.586 518.172 810.945 519.023 812.82 520.727C814.711 522.43 815.719 524.641 815.844 527.359H811.742C811.617 525.719 810.992 524.375 809.867 523.328C808.758 522.266 807.383 521.734 805.742 521.734C803.539 521.734 801.828 522.531 800.609 524.125C799.406 525.703 798.805 527.992 798.805 530.992V531.812C798.805 534.734 799.406 536.984 800.609 538.562C801.812 540.141 803.531 540.93 805.766 540.93ZM836.375 544C836.125 543.5 835.922 542.609 835.766 541.328C833.75 543.422 831.344 544.469 828.547 544.469C826.047 544.469 823.992 543.766 822.383 542.359C820.789 540.938 819.992 539.141 819.992 536.969C819.992 534.328 820.992 532.281 822.992 530.828C825.008 529.359 827.836 528.625 831.477 528.625H835.695V526.633C835.695 525.117 835.242 523.914 834.336 523.023C833.43 522.117 832.094 521.664 830.328 521.664C828.781 521.664 827.484 522.055 826.438 522.836C825.391 523.617 824.867 524.562 824.867 525.672H820.508C820.508 524.406 820.953 523.188 821.844 522.016C822.75 520.828 823.969 519.891 825.5 519.203C827.047 518.516 828.742 518.172 830.586 518.172C833.508 518.172 835.797 518.906 837.453 520.375C839.109 521.828 839.969 523.836 840.031 526.398V538.07C840.031 540.398 840.328 542.25 840.922 543.625V544H836.375ZM829.18 540.695C830.539 540.695 831.828 540.344 833.047 539.641C834.266 538.938 835.148 538.023 835.695 536.898V531.695H832.297C826.984 531.695 824.328 533.25 824.328 536.359C824.328 537.719 824.781 538.781 825.688 539.547C826.594 540.312 827.758 540.695 829.18 540.695ZM845.773 531.109C845.773 527.219 846.695 524.094 848.539 521.734C850.383 519.359 852.797 518.172 855.781 518.172C858.75 518.172 861.102 519.188 862.836 521.219V508H867.172V544H863.188L862.977 541.281C861.242 543.406 858.828 544.469 855.734 544.469C852.797 544.469 850.398 543.266 848.539 540.859C846.695 538.453 845.773 535.312 845.773 531.438V531.109ZM850.109 531.602C850.109 534.477 850.703 536.727 851.891 538.352C853.078 539.977 854.719 540.789 856.812 540.789C859.562 540.789 861.57 539.555 862.836 537.086V525.438C861.539 523.047 859.547 521.852 856.859 521.852C854.734 521.852 853.078 522.672 851.891 524.312C850.703 525.953 850.109 528.383 850.109 531.602ZM884.445 544.469C881.008 544.469 878.211 543.344 876.055 541.094C873.898 538.828 872.82 535.805 872.82 532.023V531.227C872.82 528.711 873.297 526.469 874.25 524.5C875.219 522.516 876.562 520.969 878.281 519.859C880.016 518.734 881.891 518.172 883.906 518.172C887.203 518.172 889.766 519.258 891.594 521.43C893.422 523.602 894.336 526.711 894.336 530.758V532.562H877.156C877.219 535.062 877.945 537.086 879.336 538.633C880.742 540.164 882.523 540.93 884.68 540.93C886.211 540.93 887.508 540.617 888.57 539.992C889.633 539.367 890.562 538.539 891.359 537.508L894.008 539.57C891.883 542.836 888.695 544.469 884.445 544.469ZM883.906 521.734C882.156 521.734 880.688 522.375 879.5 523.656C878.312 524.922 877.578 526.703 877.297 529H890V528.672C889.875 526.469 889.281 524.766 888.219 523.562C887.156 522.344 885.719 521.734 883.906 521.734ZM903.453 518.641L903.57 521.453C905.43 519.266 907.938 518.172 911.094 518.172C914.641 518.172 917.055 519.531 918.336 522.25C919.18 521.031 920.273 520.047 921.617 519.297C922.977 518.547 924.578 518.172 926.422 518.172C931.984 518.172 934.812 521.117 934.906 527.008V544H930.57V527.266C930.57 525.453 930.156 524.102 929.328 523.211C928.5 522.305 927.109 521.852 925.156 521.852C923.547 521.852 922.211 522.336 921.148 523.305C920.086 524.258 919.469 525.547 919.297 527.172V544H914.938V527.383C914.938 523.695 913.133 521.852 909.523 521.852C906.68 521.852 904.734 523.062 903.688 525.484V544H899.352V518.641H903.453ZM946.18 544H941.844V518.641H946.18V544ZM941.492 511.914C941.492 511.211 941.703 510.617 942.125 510.133C942.562 509.648 943.203 509.406 944.047 509.406C944.891 509.406 945.531 509.648 945.969 510.133C946.406 510.617 946.625 511.211 946.625 511.914C946.625 512.617 946.406 513.203 945.969 513.672C945.531 514.141 944.891 514.375 944.047 514.375C943.203 514.375 942.562 514.141 942.125 513.672C941.703 513.203 941.492 512.617 941.492 511.914ZM963.312 540.93C964.859 540.93 966.211 540.461 967.367 539.523C968.523 538.586 969.164 537.414 969.289 536.008H973.391C973.312 537.461 972.812 538.844 971.891 540.156C970.969 541.469 969.734 542.516 968.188 543.297C966.656 544.078 965.031 544.469 963.312 544.469C959.859 544.469 957.109 543.32 955.062 541.023C953.031 538.711 952.016 535.555 952.016 531.555V530.828C952.016 528.359 952.469 526.164 953.375 524.242C954.281 522.32 955.578 520.828 957.266 519.766C958.969 518.703 960.977 518.172 963.289 518.172C966.133 518.172 968.492 519.023 970.367 520.727C972.258 522.43 973.266 524.641 973.391 527.359H969.289C969.164 525.719 968.539 524.375 967.414 523.328C966.305 522.266 964.93 521.734 963.289 521.734C961.086 521.734 959.375 522.531 958.156 524.125C956.953 525.703 956.352 527.992 956.352 530.992V531.812C956.352 534.734 956.953 536.984 958.156 538.562C959.359 540.141 961.078 540.93 963.312 540.93Z" fill="#ADBDD3"/>
<circle cx="71.5" cy="627.5" r="11.5" fill="#FF602E"/>
<path d="M101.719 628.085H96.1729V632.62H102.615V634H94.4854V621.203H102.527V622.592H96.1729V626.705H101.719V628.085ZM108.1 632.849C108.68 632.849 109.187 632.673 109.62 632.321C110.054 631.97 110.294 631.53 110.341 631.003H111.879C111.85 631.548 111.662 632.066 111.316 632.559C110.971 633.051 110.508 633.443 109.928 633.736C109.354 634.029 108.744 634.176 108.1 634.176C106.805 634.176 105.773 633.745 105.006 632.884C104.244 632.017 103.863 630.833 103.863 629.333V629.061C103.863 628.135 104.033 627.312 104.373 626.591C104.713 625.87 105.199 625.311 105.832 624.912C106.471 624.514 107.224 624.314 108.091 624.314C109.157 624.314 110.042 624.634 110.745 625.272C111.454 625.911 111.832 626.74 111.879 627.76H110.341C110.294 627.145 110.06 626.641 109.638 626.248C109.222 625.85 108.706 625.65 108.091 625.65C107.265 625.65 106.623 625.949 106.166 626.547C105.715 627.139 105.489 627.997 105.489 629.122V629.43C105.489 630.525 105.715 631.369 106.166 631.961C106.617 632.553 107.262 632.849 108.1 632.849ZM115.333 625.642C116.054 624.757 116.991 624.314 118.146 624.314C120.155 624.314 121.169 625.448 121.187 627.716V634H119.561V627.707C119.555 627.021 119.396 626.515 119.086 626.187C118.781 625.858 118.304 625.694 117.653 625.694C117.126 625.694 116.663 625.835 116.265 626.116C115.866 626.397 115.556 626.767 115.333 627.224V634H113.707V620.5H115.333V625.642ZM123.19 629.157C123.19 628.226 123.372 627.388 123.735 626.644C124.104 625.899 124.614 625.325 125.265 624.921C125.921 624.517 126.668 624.314 127.506 624.314C128.801 624.314 129.847 624.763 130.644 625.659C131.446 626.556 131.848 627.748 131.848 629.236V629.351C131.848 630.276 131.669 631.108 131.312 631.847C130.96 632.579 130.453 633.15 129.791 633.561C129.135 633.971 128.379 634.176 127.523 634.176C126.234 634.176 125.188 633.728 124.386 632.831C123.589 631.935 123.19 630.748 123.19 629.271V629.157ZM124.825 629.351C124.825 630.405 125.068 631.252 125.555 631.891C126.047 632.529 126.703 632.849 127.523 632.849C128.35 632.849 129.006 632.526 129.492 631.882C129.979 631.231 130.222 630.323 130.222 629.157C130.222 628.114 129.973 627.271 129.475 626.626C128.982 625.976 128.326 625.65 127.506 625.65C126.703 625.65 126.056 625.97 125.563 626.608C125.071 627.247 124.825 628.161 124.825 629.351ZM142.166 632.849C142.746 632.849 143.253 632.673 143.687 632.321C144.12 631.97 144.36 631.53 144.407 631.003H145.945C145.916 631.548 145.729 632.066 145.383 632.559C145.037 633.051 144.574 633.443 143.994 633.736C143.42 634.029 142.811 634.176 142.166 634.176C140.871 634.176 139.84 633.745 139.072 632.884C138.311 632.017 137.93 630.833 137.93 629.333V629.061C137.93 628.135 138.1 627.312 138.439 626.591C138.779 625.87 139.266 625.311 139.898 624.912C140.537 624.514 141.29 624.314 142.157 624.314C143.224 624.314 144.108 624.634 144.812 625.272C145.521 625.911 145.898 626.74 145.945 627.76H144.407C144.36 627.145 144.126 626.641 143.704 626.248C143.288 625.85 142.772 625.65 142.157 625.65C141.331 625.65 140.689 625.949 140.232 626.547C139.781 627.139 139.556 627.997 139.556 629.122V629.43C139.556 630.525 139.781 631.369 140.232 631.961C140.684 632.553 141.328 632.849 142.166 632.849ZM149.399 625.642C150.12 624.757 151.058 624.314 152.212 624.314C154.222 624.314 155.235 625.448 155.253 627.716V634H153.627V627.707C153.621 627.021 153.463 626.515 153.152 626.187C152.848 625.858 152.37 625.694 151.72 625.694C151.192 625.694 150.729 625.835 150.331 626.116C149.933 626.397 149.622 626.767 149.399 627.224V634H147.773V620.5H149.399V625.642ZM163.559 634C163.465 633.812 163.389 633.479 163.33 632.998C162.574 633.783 161.672 634.176 160.623 634.176C159.686 634.176 158.915 633.912 158.312 633.385C157.714 632.852 157.415 632.178 157.415 631.363C157.415 630.373 157.79 629.605 158.54 629.061C159.296 628.51 160.356 628.234 161.722 628.234H163.304V627.487C163.304 626.919 163.134 626.468 162.794 626.134C162.454 625.794 161.953 625.624 161.291 625.624C160.711 625.624 160.225 625.771 159.832 626.063C159.439 626.356 159.243 626.711 159.243 627.127H157.608C157.608 626.652 157.775 626.195 158.109 625.756C158.449 625.311 158.906 624.959 159.48 624.701C160.061 624.443 160.696 624.314 161.388 624.314C162.483 624.314 163.342 624.59 163.963 625.141C164.584 625.686 164.906 626.438 164.93 627.399V631.776C164.93 632.649 165.041 633.344 165.264 633.859V634H163.559ZM160.86 632.761C161.37 632.761 161.854 632.629 162.311 632.365C162.768 632.102 163.099 631.759 163.304 631.337V629.386H162.029C160.037 629.386 159.041 629.969 159.041 631.135C159.041 631.645 159.211 632.043 159.551 632.33C159.891 632.617 160.327 632.761 160.86 632.761ZM169.008 624.49L169.052 625.545C169.749 624.725 170.689 624.314 171.873 624.314C173.203 624.314 174.108 624.824 174.589 625.844C174.905 625.387 175.315 625.018 175.819 624.736C176.329 624.455 176.93 624.314 177.621 624.314C179.707 624.314 180.768 625.419 180.803 627.628V634H179.177V627.725C179.177 627.045 179.021 626.538 178.711 626.204C178.4 625.864 177.879 625.694 177.146 625.694C176.543 625.694 176.042 625.876 175.644 626.239C175.245 626.597 175.014 627.08 174.949 627.689V634H173.314V627.769C173.314 626.386 172.638 625.694 171.284 625.694C170.218 625.694 169.488 626.148 169.096 627.057V634H167.47V624.49H169.008ZM191.314 629.351C191.314 630.804 190.98 631.973 190.312 632.857C189.645 633.736 188.748 634.176 187.623 634.176C186.422 634.176 185.493 633.751 184.837 632.901L184.758 634H183.264V620.5H184.89V625.536C185.546 624.722 186.451 624.314 187.605 624.314C188.76 624.314 189.665 624.751 190.321 625.624C190.983 626.497 191.314 627.692 191.314 629.21V629.351ZM189.688 629.166C189.688 628.059 189.475 627.203 189.047 626.6C188.619 625.996 188.004 625.694 187.201 625.694C186.129 625.694 185.358 626.192 184.89 627.188V631.302C185.388 632.298 186.164 632.796 187.219 632.796C187.998 632.796 188.604 632.494 189.038 631.891C189.472 631.287 189.688 630.379 189.688 629.166ZM197.317 634.176C196.028 634.176 194.979 633.754 194.171 632.91C193.362 632.061 192.958 630.927 192.958 629.509V629.21C192.958 628.267 193.137 627.426 193.494 626.688C193.857 625.943 194.361 625.363 195.006 624.947C195.656 624.525 196.359 624.314 197.115 624.314C198.352 624.314 199.312 624.722 199.998 625.536C200.684 626.351 201.026 627.517 201.026 629.034V629.711H194.584C194.607 630.648 194.88 631.407 195.401 631.987C195.929 632.562 196.597 632.849 197.405 632.849C197.979 632.849 198.466 632.731 198.864 632.497C199.263 632.263 199.611 631.952 199.91 631.565L200.903 632.339C200.106 633.563 198.911 634.176 197.317 634.176ZM197.115 625.65C196.459 625.65 195.908 625.891 195.463 626.371C195.018 626.846 194.742 627.514 194.637 628.375H199.4V628.252C199.354 627.426 199.131 626.787 198.732 626.336C198.334 625.879 197.795 625.65 197.115 625.65ZM207.513 625.949C207.267 625.908 207 625.888 206.713 625.888C205.646 625.888 204.923 626.342 204.542 627.25V634H202.916V624.49H204.498L204.524 625.589C205.058 624.739 205.813 624.314 206.792 624.314C207.108 624.314 207.349 624.355 207.513 624.438V625.949Z" fill="black"/>
<circle cx="259.5" cy="627.5" r="11.5" fill="#677CFF"/>
<path d="M289.543 628.349H284.173V634H282.485V621.203H290.413V622.592H284.173V626.969H289.543V628.349ZM293.946 634H292.32V624.49H293.946V634ZM292.188 621.968C292.188 621.704 292.268 621.481 292.426 621.3C292.59 621.118 292.83 621.027 293.146 621.027C293.463 621.027 293.703 621.118 293.867 621.3C294.031 621.481 294.113 621.704 294.113 621.968C294.113 622.231 294.031 622.451 293.867 622.627C293.703 622.803 293.463 622.891 293.146 622.891C292.83 622.891 292.59 622.803 292.426 622.627C292.268 622.451 292.188 622.231 292.188 621.968ZM298.323 634H296.697V620.5H298.323V634ZM303.14 622.188V624.49H304.915V625.747H303.14V631.645C303.14 632.025 303.219 632.312 303.377 632.506C303.535 632.693 303.805 632.787 304.186 632.787C304.373 632.787 304.631 632.752 304.959 632.682V634C304.531 634.117 304.115 634.176 303.711 634.176C302.984 634.176 302.437 633.956 302.067 633.517C301.698 633.077 301.514 632.453 301.514 631.645V625.747H299.782V624.49H301.514V622.188H303.14ZM310.769 634.176C309.479 634.176 308.431 633.754 307.622 632.91C306.813 632.061 306.409 630.927 306.409 629.509V629.21C306.409 628.267 306.588 627.426 306.945 626.688C307.309 625.943 307.812 625.363 308.457 624.947C309.107 624.525 309.811 624.314 310.566 624.314C311.803 624.314 312.764 624.722 313.449 625.536C314.135 626.351 314.478 627.517 314.478 629.034V629.711H308.035C308.059 630.648 308.331 631.407 308.853 631.987C309.38 632.562 310.048 632.849 310.856 632.849C311.431 632.849 311.917 632.731 312.315 632.497C312.714 632.263 313.062 631.952 313.361 631.565L314.354 632.339C313.558 633.563 312.362 634.176 310.769 634.176ZM310.566 625.65C309.91 625.65 309.359 625.891 308.914 626.371C308.469 626.846 308.193 627.514 308.088 628.375H312.852V628.252C312.805 627.426 312.582 626.787 312.184 626.336C311.785 625.879 311.246 625.65 310.566 625.65ZM320.964 625.949C320.718 625.908 320.451 625.888 320.164 625.888C319.098 625.888 318.374 626.342 317.993 627.25V634H316.367V624.49H317.949L317.976 625.589C318.509 624.739 319.265 624.314 320.243 624.314C320.56 624.314 320.8 624.355 320.964 624.438V625.949ZM334.982 629.351C334.982 630.804 334.648 631.973 333.98 632.857C333.312 633.736 332.416 634.176 331.291 634.176C330.09 634.176 329.161 633.751 328.505 632.901L328.426 634H326.932V620.5H328.558V625.536C329.214 624.722 330.119 624.314 331.273 624.314C332.428 624.314 333.333 624.751 333.989 625.624C334.651 626.497 334.982 627.692 334.982 629.21V629.351ZM333.356 629.166C333.356 628.059 333.143 627.203 332.715 626.6C332.287 625.996 331.672 625.694 330.869 625.694C329.797 625.694 329.026 626.192 328.558 627.188V631.302C329.056 632.298 329.832 632.796 330.887 632.796C331.666 632.796 332.272 632.494 332.706 631.891C333.14 631.287 333.356 630.379 333.356 629.166ZM342.91 633.06C342.277 633.804 341.349 634.176 340.124 634.176C339.11 634.176 338.337 633.883 337.804 633.297C337.276 632.705 337.01 631.832 337.004 630.678V624.49H338.63V630.634C338.63 632.075 339.216 632.796 340.388 632.796C341.63 632.796 342.456 632.333 342.866 631.407V624.49H344.492V634H342.945L342.91 633.06ZM355.021 629.351C355.021 630.804 354.688 631.973 354.02 632.857C353.352 633.736 352.455 634.176 351.33 634.176C350.129 634.176 349.2 633.751 348.544 632.901L348.465 634H346.971V620.5H348.597V625.536C349.253 624.722 350.158 624.314 351.312 624.314C352.467 624.314 353.372 624.751 354.028 625.624C354.69 626.497 355.021 627.692 355.021 629.21V629.351ZM353.396 629.166C353.396 628.059 353.182 627.203 352.754 626.6C352.326 625.996 351.711 625.694 350.908 625.694C349.836 625.694 349.065 626.192 348.597 627.188V631.302C349.095 632.298 349.871 632.796 350.926 632.796C351.705 632.796 352.312 632.494 352.745 631.891C353.179 631.287 353.396 630.379 353.396 629.166ZM365.129 629.351C365.129 630.804 364.795 631.973 364.127 632.857C363.459 633.736 362.562 634.176 361.438 634.176C360.236 634.176 359.308 633.751 358.651 632.901L358.572 634H357.078V620.5H358.704V625.536C359.36 624.722 360.266 624.314 361.42 624.314C362.574 624.314 363.479 624.751 364.136 625.624C364.798 626.497 365.129 627.692 365.129 629.21V629.351ZM363.503 629.166C363.503 628.059 363.289 627.203 362.861 626.6C362.434 625.996 361.818 625.694 361.016 625.694C359.943 625.694 359.173 626.192 358.704 627.188V631.302C359.202 632.298 359.979 632.796 361.033 632.796C361.812 632.796 362.419 632.494 362.853 631.891C363.286 631.287 363.503 630.379 363.503 629.166ZM368.952 634H367.326V620.5H368.952V634ZM375.509 634.176C374.22 634.176 373.171 633.754 372.362 632.91C371.554 632.061 371.149 630.927 371.149 629.509V629.21C371.149 628.267 371.328 627.426 371.686 626.688C372.049 625.943 372.553 625.363 373.197 624.947C373.848 624.525 374.551 624.314 375.307 624.314C376.543 624.314 377.504 624.722 378.189 625.536C378.875 626.351 379.218 627.517 379.218 629.034V629.711H372.775C372.799 630.648 373.071 631.407 373.593 631.987C374.12 632.562 374.788 632.849 375.597 632.849C376.171 632.849 376.657 632.731 377.056 632.497C377.454 632.263 377.803 631.952 378.102 631.565L379.095 632.339C378.298 633.563 377.103 634.176 375.509 634.176ZM375.307 625.65C374.65 625.65 374.1 625.891 373.654 626.371C373.209 626.846 372.934 627.514 372.828 628.375H377.592V628.252C377.545 627.426 377.322 626.787 376.924 626.336C376.525 625.879 375.986 625.65 375.307 625.65Z" fill="black"/>
</svg>
